<?xml version="1.0" encoding="UTF-8"?>
<svg width="128pt" height="128pt" version="1.1" viewBox="0 0 128 128" xmlns="http://www.w3.org/2000/svg">
 <g>
  <path d="m82 64c0-9.9258-8.0742-18-18-18s-18 8.0742-18 18 8.0742 18 18 18 18-8.0742 18-18zm-18 10c5.5156 0 10-4.4844 10-10h4c0 7.7188-6.2812 14-14 14z"/>
  <path d="m24.172 27.344 22.777 22.777c0.94922-1.1602 2.0117-2.2227 3.1719-3.1719l-22.777-22.777c-0.88281 1.2188-1.9531 2.2891-3.1719 3.1719z"/>
  <path d="m50.121 81.051c-1.1602-0.94922-2.2227-2.0117-3.1719-3.1719l-22.777 22.777c1.2188 0.88281 2.2891 1.9531 3.1719 3.1719z"/>
  <path d="m16 102c-5.5156 0-10 4.4844-10 10s4.4844 10 10 10 10-4.4844 10-10-4.4844-10-10-10zm0 16v-4c1.1016 0 2-0.89844 2-2h4c0 3.3086-2.6914 6-6 6z"/>
  <path d="m16 26c5.5156 0 10-4.4844 10-10s-4.4844-10-10-10-10 4.4844-10 10 4.4844 10 10 10zm0-8c1.1016 0 2-0.89844 2-2h4c0 3.3086-2.6914 6-6 6z"/>
  <path d="m77.879 46.949c1.1602 0.94922 2.2227 2.0117 3.1719 3.1719l22.777-22.777c-1.2188-0.88281-2.2891-1.9531-3.1719-3.1719z"/>
  <path d="m112 26c5.5156 0 10-4.4844 10-10s-4.4844-10-10-10-10 4.4844-10 10 4.4844 10 10 10zm0-8c1.1016 0 2-0.89844 2-2h4c0 3.3086-2.6914 6-6 6z"/>
  <path d="m103.83 100.66-22.777-22.777c-0.94922 1.1602-2.0117 2.2227-3.1719 3.1719l22.777 22.777c0.88281-1.2188 1.9531-2.2891 3.1719-3.1719z"/>
  <path d="m112 102c-5.5156 0-10 4.4844-10 10s4.4844 10 10 10 10-4.4844 10-10-4.4844-10-10-10zm0 16v-4c1.1016 0 2-0.89844 2-2h4c0 3.3086-2.6914 6-6 6z"/>
 </g>
</svg>
