<?xml version="1.0" encoding="UTF-8"?>
<svg width="128pt" height="128pt" version="1.1" viewBox="0 0 128 128" xmlns="http://www.w3.org/2000/svg">
 <g>
  <path d="m47.359 121.6v-20.098c2.5586-1.1523 5.6328-3.0703 7.8086-5.7617 1.793 0.89453 3.5859 1.2812 5.7617 1.2812 7.6797 0 13.824-6.1445 13.824-13.824 0-4.2227-1.9219-8.0625-4.9922-10.625 3.0703-2.5586 4.9922-6.3984 4.9922-10.625 0-7.6797-6.2734-13.824-13.824-13.824h-0.89453c-2.8164-8.9609-9.9844-15.359-18.559-15.359-10.879 0-19.84 10.367-19.84 23.168v0.12891c-6.9102 0.76953-12.289 6.6562-12.289 13.695 0 5.7617 3.5859 10.754 8.5742 12.801-0.89453 1.793-1.2812 3.8398-1.2812 5.8867 0 7.6797 6.5273 13.824 14.207 13.824 1.6641 0 2.5586-0.38281 5.1211-0.89453v20.227z"/>
  <path d="m85.633 25.473c0.25781 0.38281 0.64063 0.64062 1.0234 0.64062 0.25781 0 0.38281 0 0.64062-0.12891 0.64062-0.38281 0.76953-1.1523 0.51172-1.6641l-2.9453-5.1211c-0.38281-0.64062-1.1523-0.76953-1.6641-0.51172-0.64062 0.38281-0.76953 1.1523-0.51172 1.6641z"/>
  <path d="m80.258 38.145c0-0.64062-0.51172-1.2812-1.2812-1.2812h-5.8867c-0.64062 0-1.2812 0.51172-1.2812 1.2812 0 0.64062 0.51172 1.2812 1.2812 1.2812h5.8867c0.64063 0 1.2812-0.64062 1.2812-1.2812z"/>
  <path d="m81.664 29.441-5.1211-2.9453c-0.64062-0.38281-1.4062-0.12891-1.6641 0.51172-0.38281 0.64063-0.12891 1.4062 0.51172 1.6641l5.1211 2.9453c0.25781 0.12891 0.38281 0.12891 0.64062 0.12891 0.38281 0 0.89453-0.25781 1.0234-0.64062 0.25781-0.64062 0-1.4102-0.51172-1.6641z"/>
  <path d="m80.383 44.801-5.1211 2.9453c-0.64062 0.38281-0.76953 1.1523-0.51172 1.6641 0.25781 0.38281 0.64062 0.64062 1.0234 0.64062 0.25781 0 0.38281 0 0.64062-0.12891l5.1211-2.9453c0.64062-0.38281 0.76953-1.1523 0.51172-1.6641-0.25391-0.64062-1.0234-0.89844-1.6641-0.51172z"/>
  <path d="m107.65 31.742c0.25781 0 0.38281 0 0.64062-0.12891l5.1211-2.9453c0.64062-0.38281 0.76953-1.1523 0.51172-1.6641-0.38281-0.64062-1.1523-0.76953-1.6641-0.51172l-5.1211 2.9453c-0.64062 0.38281-0.76953 1.1523-0.51172 1.6641 0.12891 0.38672 0.64062 0.64063 1.0234 0.64063z"/>
  <path d="m94.336 24.062c0.64062 0 1.2812-0.51172 1.2812-1.2812v-5.8867c0-0.64062-0.51172-1.2812-1.2812-1.2812-0.64063 0-1.2812 0.51172-1.2812 1.2812v5.8867c0 0.64453 0.64062 1.2812 1.2812 1.2812z"/>
  <path d="m101.38 25.984c0.25781 0.12891 0.38281 0.12891 0.64062 0.12891 0.38281 0 0.89453-0.25781 1.0234-0.64062l2.9453-5.1211c0.38281-0.64062 0.12891-1.4062-0.51172-1.6641-0.64062-0.38281-1.4062-0.12891-1.6641 0.51172l-2.9453 5.1211c-0.25391 0.51172-0.12891 1.2812 0.51172 1.6641z"/>
  <path d="m115.59 36.863h-5.8867c-0.64062 0-1.2812 0.51172-1.2812 1.2812 0 0.64062 0.51172 1.2812 1.2812 1.2812h5.8867c0.64062 0 1.2812-0.51172 1.2812-1.2812-0.003907-0.64062-0.64453-1.2812-1.2812-1.2812z"/>
  <path d="m94.336 50.047c6.5273 0 11.902-5.375 11.902-11.902 0-6.5273-5.375-11.902-11.902-11.902-6.5273 0-11.902 5.375-11.902 11.902 0 6.5273 5.375 11.902 11.902 11.902z"/>
  <path d="m113.41 47.742-5.1211-2.9453c-0.64062-0.38281-1.4062-0.12891-1.6641 0.51172-0.38281 0.64062-0.12891 1.4062 0.51172 1.6641l5.1211 2.9453c0.25781 0.12891 0.38281 0.12891 0.64062 0.12891 0.38281 0 0.89453-0.25781 1.0234-0.64062 0.25781-0.63672 0.003906-1.4062-0.51172-1.6641z"/>
  <path d="m87.297 50.434c-0.64062-0.38281-1.4062-0.12891-1.6641 0.51172l-2.9453 5.1211c-0.38281 0.64062-0.12891 1.4062 0.51172 1.6641 0.25781 0.12891 0.38281 0.12891 0.64062 0.12891 0.38281 0 0.89453-0.25781 1.0234-0.64062l2.9453-5.1211c0.25391-0.64062 0-1.4102-0.51172-1.6641z"/>
  <path d="m103.04 50.816c-0.38281-0.64062-1.1523-0.76953-1.6641-0.51172-0.64062 0.38281-0.76953 1.1523-0.51172 1.6641l2.9453 5.1211c0.25781 0.38281 0.64062 0.64062 1.0234 0.64062 0.25781 0 0.38281 0 0.64062-0.12891 0.64062-0.38281 0.76953-1.1523 0.51172-1.6641z"/>
  <path d="m94.336 52.352c-0.64063 0-1.2812 0.51172-1.2812 1.2812v5.8867c0 0.64062 0.51172 1.2812 1.2812 1.2812 0.64062 0 1.2812-0.51172 1.2812-1.2812v-5.8867c0-0.76953-0.64063-1.2812-1.2812-1.2812z"/>
  <path d="m101.38 96.512c1.6641-1.4062 2.6875-3.457 2.6875-5.8867 0-4.2227-3.457-7.6797-7.6797-7.6797h-0.51172c-1.5352-4.8633-5.5039-8.4492-10.238-8.4492-4.0977 0-7.6797 2.6875-9.4727 6.5273 0.12891 0.64062 0.12891 1.4062 0.12891 2.0469 0 5.8867-3.1992 11.008-7.9375 13.695 0.64063 2.3047 2.3047 4.2227 4.4805 5.1211-0.51172 1.0234-0.76953 2.0469-0.76953 3.1992 0 4.2227 3.1992 7.6797 7.2969 7.6797 0.89453 0 2.4336-0.12891 2.4336-0.51172v9.3477h6.3984v-9.2148c0-0.64062 3.457-1.6641 4.7344-3.1992 1.0234 0.51172 2.1758 0.76953 3.3281 0.76953 4.2227 0 7.6797-3.457 7.6797-7.6797 0.12891-2.3086-0.89453-4.3555-2.5586-5.7656z"/>
 </g>
</svg>
